<?xml version="1.0" encoding="utf-8"?>
<!-- Generator: Adobe Illustrator 17.1.0, SVG Export Plug-In . SVG Version: 6.00 Build 0)  -->
<!DOCTYPE svg PUBLIC "-//W3C//DTD SVG 1.1//EN" "http://www.w3.org/Graphics/SVG/1.1/DTD/svg11.dtd">
<svg version="1.1" id="Layer_1" xmlns="http://www.w3.org/2000/svg" xmlns:xlink="http://www.w3.org/1999/xlink" x="0px" y="0px"
	 viewBox="0.7 185.5 10 1.8" enable-background="new 0.7 185.5 10 1.8" xml:space="preserve">
<g>
	<path d="M1.6,185.5c0.6,0,0.9,0.4,0.9,0.9c0,0.2-0.1,0.4-0.2,0.5l0,0c0.1,0.1,0.1,0.1,0,0.2l-0.1,0.1c-0.1,0.1-0.1,0.1-0.2,0
		l-0.1-0.1c-0.1,0.1-0.3,0.1-0.5,0.1c-0.6,0-0.9-0.4-0.9-0.9C0.7,185.9,1.1,185.5,1.6,185.5z M1.7,186.9
		C1.7,186.9,1.7,186.8,1.7,186.9L1.7,186.9c0-0.1-0.1-0.2,0-0.3l0.1-0.1c0.1-0.1,0.1-0.1,0.2,0l0.1,0.1c0,0,0-0.1,0-0.1
		c0-0.3-0.2-0.4-0.4-0.4c-0.2,0-0.4,0.2-0.4,0.4C1.2,186.6,1.4,186.9,1.7,186.9z"/>
	<path d="M3.2,186.7c0,0.1,0,0.1,0.1,0.1c0.2,0,0.2-0.1,0.2-0.3v-0.4c0-0.1,0.1-0.2,0.2-0.2h0.2c0.1,0,0.2,0.1,0.2,0.2v1
		c0,0.1-0.1,0.2-0.2,0.2H3.7c-0.1,0-0.2-0.1-0.2-0.1v0h0c-0.1,0.2-0.2,0.2-0.4,0.2c-0.2,0-0.5-0.1-0.5-0.5v-0.7
		c0-0.1,0.1-0.2,0.2-0.2H3c0.1,0,0.2,0.1,0.2,0.2L3.2,186.7L3.2,186.7z"/>
	<path d="M4.2,186.2c0-0.1,0.1-0.2,0.2-0.2h0.2c0.1,0,0.2,0.1,0.2,0.2v1c0,0.1-0.1,0.2-0.2,0.2H4.4c-0.1,0-0.2-0.1-0.2-0.2
		C4.2,187.1,4.2,186.2,4.2,186.2z M4.2,185.7L4.2,185.7c0-0.2,0.1-0.2,0.2-0.2h0.2c0.1,0,0.2,0.1,0.2,0.2v0.1c0,0.1-0.1,0.2-0.2,0.2
		H4.4C4.3,185.9,4.2,185.8,4.2,185.7z"/>
	<path d="M4.9,187.1c0-0.1,0-0.1,0.1-0.2l0.5-0.8c0.1-0.1,0.1-0.2,0.1-0.2v0c0,0-0.1,0-0.1,0H5c-0.1,0-0.2-0.1-0.2-0.2v-0.1
		c0-0.1,0.1-0.2,0.2-0.2h1.1c0.1,0,0.2,0.1,0.2,0.2v0c0,0.1,0,0.1-0.1,0.2l-0.5,0.8c-0.1,0.1-0.1,0.2-0.1,0.2v0c0,0,0.1,0,0.1,0h0.5
		c0.1,0,0.2,0.1,0.2,0.2v0.1c0,0.1-0.1,0.2-0.2,0.2H5C4.9,187.3,4.9,187.2,4.9,187.1L4.9,187.1L4.9,187.1z"/>
	<path d="M7.1,186c0.4,0,0.7,0.3,0.7,0.7c0,0.4-0.3,0.7-0.7,0.7s-0.7-0.3-0.7-0.7C6.3,186.2,6.7,186,7.1,186z M7.1,186.9
		c0.1,0,0.2-0.1,0.2-0.2c0-0.2-0.1-0.3-0.2-0.3c-0.1,0-0.2,0.1-0.2,0.3C6.9,186.8,7,186.9,7.1,186.9z"/>
	<path d="M8,186.2c0-0.1,0.1-0.2,0.2-0.2h0.2c0.1,0,0.2,0.1,0.2,0.2h0c0.1-0.1,0.2-0.2,0.4-0.2c0.2,0,0.5,0.1,0.5,0.5v0.7
		c0,0.1-0.1,0.2-0.2,0.2H8.9c-0.1,0-0.2-0.1-0.2-0.2v-0.6c0-0.1,0-0.1-0.1-0.1c-0.2,0-0.2,0.1-0.2,0.3v0.4c0,0.1-0.1,0.2-0.2,0.2
		H8.1c-0.1,0-0.2-0.1-0.2-0.2L8,186.2L8,186.2L8,186.2z"/>
	<path d="M10.1,186c0.4,0,0.6,0.3,0.6,0.6c0,0.1-0.1,0.2-0.2,0.2H9.9c0,0.1,0.1,0.1,0.2,0.1c0.1,0,0.1,0,0.2,0c0.1,0,0.2,0,0.2,0.1
		l0,0.1c0,0.1,0,0.2-0.1,0.2c-0.1,0.1-0.3,0.1-0.4,0.1c-0.5,0-0.7-0.3-0.7-0.7C9.4,186.3,9.7,186,10.1,186z M10.2,186.5
		c0-0.1,0-0.2-0.1-0.2c-0.1,0-0.1,0.1-0.1,0.2H10.2z"/>
</g>
</svg>
