<?xml version="1.0" encoding="utf-8"?>
<!-- Generator: Adobe Illustrator 17.1.0, SVG Export Plug-In . SVG Version: 6.00 Build 0)  -->
<!DOCTYPE svg PUBLIC "-//W3C//DTD SVG 1.1//EN" "http://www.w3.org/Graphics/SVG/1.1/DTD/svg11.dtd">
<svg version="1.1" id="Layer_1" xmlns="http://www.w3.org/2000/svg" xmlns:xlink="http://www.w3.org/1999/xlink" x="0px" y="0px"
	 viewBox="0 0 280 51.4" enable-background="new 0 0 280 51.4" xml:space="preserve">
<g>
	<path d="M26.2,0c15.7,0,26.3,11.2,26.3,25.1c0,5.8-1.9,10-4.4,14.1l1.2,0.9c2.4,1.8,2.6,4.1,0.7,6.3l-2.1,2.4
		c-2.2,2.5-4.2,2.1-6,0.5l-1.8-1.5c-3.9,2.3-8.5,3.5-13.7,3.5C10.6,51.4,0,40,0,25.5C0,11.1,10.5,0,26.2,0z M27.1,38.3
		c0.8,0,1.7-0.2,2.3-0.3l-1.1-0.9c-1.9-1.5-2.8-4.1-0.9-6.2l2.1-2.4c1.9-2.1,3.7-2.1,5.8-0.3l1.7,1.4c0.2-1.3,0.3-3.1,0.3-4
		c0-7.4-4.9-12.4-11.3-12.4c-6.6,0-11.1,5.2-11.1,12.1C15,32.6,19.7,38.3,27.1,38.3z"/>
	<path d="M70.2,34.9c0,2.5,1.2,3.4,3.2,3.4c4.2,0,5-4.2,5-7.9V19.2c0-3,1.6-4.5,4.5-4.5h5.4c2.9,0,4.5,1.5,4.5,4.5v26.9
		c0,2.9-1.6,4.5-4.5,4.5h-4.7c-3,0-4.4-1.6-4.4-3.9v-1.1H79c-2,4.5-6.1,5.9-10.4,5.9c-6.5,0-12.9-3-12.9-13.3V19.2
		c0-3,1.6-4.5,4.5-4.5h5.4c2.9,0,4.5,1.5,4.5,4.5L70.2,34.9L70.2,34.9z"/>
	<path d="M98.2,19.2c0-3,1.6-4.5,4.5-4.5h5.4c3,0,4.5,1.5,4.5,4.5v26.9c0,2.9-1.6,4.5-4.5,4.5h-5.4c-2.9,0-4.5-1.6-4.5-4.5
		C98.2,46.1,98.2,19.2,98.2,19.2z M98.4,6.8V5.3c0-3,1.5-4.5,4.5-4.5h4.9c2.9,0,4.5,1.5,4.5,4.5v1.4c0,3-1.6,4.5-4.5,4.5h-4.9
		C100,11.4,98.4,9.7,98.4,6.8z"/>
	<path d="M116.3,44.6c0-2.2,0.5-3.8,1.8-5.6l15.2-21.3c2.3-3.2,3.9-4.5,3.9-4.5v-0.2c0,0-1.7,0.2-3.9,0.2h-11.8
		c-3,0-4.5-1.6-4.5-4.5V5.4c0-3,1.5-4.5,4.5-4.5h29.7c3,0,4.5,1.5,4.5,4.4v1.3c0,2.2-0.5,3.9-1.8,5.7l-15.3,21.4
		c-2.3,3.2-3.9,4.5-3.9,4.5v0.2c0,0,1.7-0.2,3.9-0.2h13.1c2.9,0,4.5,1.6,4.5,4.5v3.5c0,2.9-1.6,4.5-4.5,4.5h-30.9
		c-3,0-4.5-1.6-4.5-4.5L116.3,44.6L116.3,44.6z"/>
	<path d="M178.6,13.9c11.6,0,20.9,7.5,20.9,18.9c0,11.4-9.3,18.6-20.8,18.6c-11.5,0-20.8-7.2-20.8-18.6
		C157.8,21.3,167.1,13.9,178.6,13.9z M178.7,39.5c3.3,0,6.3-2.3,6.3-6.7c0-4.5-3-7.1-6.3-7.1c-3.3,0-6.2,2.5-6.2,7.1
		C172.5,37.2,175.3,39.5,178.7,39.5z"/>
	<path d="M203.2,19.2c0-3,1.6-4.5,4.5-4.5h4.7c3,0,4.4,1.8,4.4,5h0.2c1.9-3.6,4.9-5.9,10.7-5.9c6.4,0,13,2.8,13,13.3v18.9
		c0,2.9-1.6,4.5-4.5,4.5h-5.4c-2.9,0-4.5-1.6-4.5-4.5V30.2c0-2.5-1.2-3.4-3.2-3.4c-4.5,0-5.4,4.2-5.4,7.9v11.4
		c0,2.9-1.6,4.5-4.5,4.5h-5.4c-2.9,0-4.5-1.6-4.5-4.5V19.2L203.2,19.2L203.2,19.2z"/>
	<path d="M262.9,13.9c11,0,17.1,7.6,17.1,16.8c0,2.1-1.9,4.7-4.7,4.7h-16.7c1.2,3.1,4,4.2,6.7,4.2c1.7,0,3.7-0.3,5.6-1.2
		c2.7-1.2,4.7-0.8,6.1,1.8l1.1,2.1c1.3,2.6,0.9,4.9-1.6,6.2c-2.8,1.4-7.1,2.9-12.4,2.9c-13.5,0-20-9.7-20-18.8
		C243.9,22.4,250.7,13.9,262.9,13.9z M266.1,28.1c0.2-2.2-1-4.5-3.3-4.5c-3.1,0-4,2.4-4.2,4.5H266.1z"/>
</g>
</svg>
