<?xml version="1.0" encoding="utf-8"?>
<!-- Generator: Adobe Illustrator 17.1.0, SVG Export Plug-In . SVG Version: 6.00 Build 0)  -->
<!DOCTYPE svg PUBLIC "-//W3C//DTD SVG 1.1//EN" "http://www.w3.org/Graphics/SVG/1.1/DTD/svg11.dtd">
<svg version="1.1" id="Layer_1" xmlns="http://www.w3.org/2000/svg" xmlns:xlink="http://www.w3.org/1999/xlink" x="0px" y="0px"
	 viewBox="0.7 181.4 638.6 117.3" enable-background="new 0.7 181.4 638.6 117.3" xml:space="preserve">
<g>
	<path fill="#FFFFFF" d="M60.4,181.4c35.8,0,59.9,25.5,59.9,57.3c0,13.3-4.3,22.9-10.1,32.2l2.7,2.1c5.4,4.1,6,9.4,1.5,14.3
		l-4.9,5.5c-5.1,5.7-9.5,4.9-13.6,1.2l-4.1-3.4c-9,5.2-19.3,8-31.2,8c-35.8,0-59.9-26-59.9-59C0.6,206.8,24.6,181.4,60.4,181.4z
		 M62.6,268.8c1.8,0,3.9-0.4,5.2-0.7l-2.5-2.1c-4.3-3.4-6.4-9.4-2.1-14.2l4.9-5.4c4.3-4.7,8.4-4.7,13.3-0.6l3.9,3.3
		c0.5-3,0.7-7.1,0.7-9.1c0-16.9-11.1-28.2-25.7-28.2c-15,0-25.4,11.8-25.4,27.7C35,255.7,45.7,268.8,62.6,268.8z"/>
	<path fill="#FFFFFF" d="M160.8,261c0,5.8,2.7,7.8,7.3,7.8c9.6,0,11.5-9.5,11.5-18v-25.6c0-6.8,3.6-10.2,10.3-10.2h12.3
		c6.7,0,10.2,3.4,10.2,10.2v61.4c0,6.7-3.6,10.2-10.2,10.2h-10.8c-6.8,0-10.1-3.6-10.1-9v-2.5h-0.4c-4.6,10.3-13.9,13.4-23.7,13.4
		c-14.8,0-29.4-6.8-29.4-30.3v-43.2c0-6.8,3.6-10.2,10.3-10.2h12.3c6.7,0,10.2,3.4,10.2,10.2V261H160.8z"/>
	<path fill="#FFFFFF" d="M224.6,225.2c0-6.8,3.6-10.2,10.2-10.2h12.3c6.8,0,10.3,3.4,10.3,10.2v61.4c0,6.7-3.6,10.2-10.3,10.2h-12.3
		c-6.7,0-10.2-3.6-10.2-10.2V225.2z M225.2,196.8v-3.3c0-6.8,3.4-10.2,10.2-10.2h11.2c6.7,0,10.2,3.4,10.2,10.2v3.3
		c0,6.8-3.6,10.3-10.2,10.3h-11.2C228.7,207.3,225.2,203.6,225.2,196.8z"/>
	<path fill="#FFFFFF" d="M266,283.2c0-5.1,1.1-8.6,4.1-12.8l34.7-48.5c5.2-7.3,9-10.2,9-10.2v-0.4c0,0-3.9,0.5-8.9,0.5h-27
		c-6.8,0-10.2-3.6-10.2-10.2v-7.9c0-6.8,3.4-10.2,10.2-10.2h67.8c6.8,0,10.2,3.4,10.2,10.1v3c0,5.1-1.1,8.9-4.1,12.9L317,258.3
		c-5.2,7.3-9,10.2-9,10.2v0.4c0,0,3.9-0.5,8.9-0.5h29.8c6.7,0,10.2,3.6,10.2,10.2v7.9c0,6.7-3.6,10.2-10.2,10.2h-70.5
		c-6.8,0-10.2-3.6-10.2-10.2L266,283.2L266,283.2z"/>
	<path fill="#FFFFFF" d="M408.1,213c26.5,0,47.7,17,47.7,43.2c0,25.9-21.2,42.4-47.4,42.4S361,282.1,361,256.2
		C360.7,230,381.9,213,408.1,213z M408.3,271.5c7.5,0,14.3-5.2,14.3-15.3c0-10.2-6.8-16.1-14.3-16.1s-14.2,5.8-14.2,16.1
		C394.1,266.3,400.6,271.5,408.3,271.5z"/>
	<path fill="#FFFFFF" d="M464.1,225.2c0-6.8,3.6-10.2,10.2-10.2h10.8c6.8,0,10.1,4.1,10.1,11.5h0.4c4.4-8.3,11.1-13.4,24.3-13.4
		c14.7,0,29.7,6.3,29.7,30.3v43.2c0,6.7-3.6,10.2-10.3,10.2h-12.3c-6.7,0-10.2-3.6-10.2-10.2v-36.2c0-5.8-2.7-7.8-7.3-7.8
		c-10.2,0-12.3,9.5-12.3,18v25.9c0,6.7-3.6,10.2-10.3,10.2h-12.3c-6.7,0-10.2-3.6-10.2-10.2v-61.2H464.1z"/>
	<path fill="#FFFFFF" d="M600.5,213c25.1,0,38.9,17.4,38.9,38.3c0,4.9-4.4,10.7-10.8,10.7h-38.2c2.7,7.1,9.1,9.5,15.3,9.5
		c3.9,0,8.5-0.7,12.8-2.7c6.2-2.7,10.7-1.8,13.9,4.1l2.5,4.9c3,6,2.1,11.1-3.6,14.2c-6.4,3.3-16.1,6.7-28.3,6.7
		c-30.9,0-45.7-22.2-45.7-42.9C557.1,232.5,572.6,213,600.5,213z M607.7,245.5c0.5-5.1-2.2-10.2-7.5-10.2c-7.1,0-9.1,5.4-9.5,10.2
		H607.7z"/>
</g>
</svg>
